<?xml version="1.0" encoding="UTF-8" standalone="no"?>
<!-- Created with Inkscape (http://www.inkscape.org/) -->

<svg
   width="1000"
   height="1000"
   viewBox="0 0 264.58333 264.58333"
   version="1.1"
   id="svg298"
   inkscape:version="1.3-dev (4ab1461e, 2022-04-10)"
   sodipodi:docname="orama_icon.svg"
   xmlns:inkscape="http://www.inkscape.org/namespaces/inkscape"
   xmlns:sodipodi="http://sodipodi.sourceforge.net/DTD/sodipodi-0.dtd"
   xmlns="http://www.w3.org/2000/svg"
   xmlns:svg="http://www.w3.org/2000/svg">
  <sodipodi:namedview
     id="namedview300"
     pagecolor="#ffffff"
     bordercolor="#666666"
     borderopacity="1.0"
     inkscape:pageshadow="2"
     inkscape:pageopacity="0.0"
     inkscape:pagecheckerboard="0"
     inkscape:deskcolor="#d1d1d1"
     inkscape:document-units="mm"
     showgrid="true"
     inkscape:zoom="0.52724989"
     inkscape:cx="203.88814"
     inkscape:cy="574.68007"
     inkscape:window-width="1920"
     inkscape:window-height="1017"
     inkscape:window-x="-8"
     inkscape:window-y="1072"
     inkscape:window-maximized="1"
     inkscape:current-layer="layer1">
    <inkscape:grid
       type="xygrid"
       id="grid419"
       spacingx="26.458333"
       spacingy="26.458333" />
  </sodipodi:namedview>
  <defs
     id="defs295" />
  <g
     inkscape:label="Layer 1"
     inkscape:groupmode="layer"
     id="layer1">
    <g
       id="g111"
       transform="matrix(1.0497932,0,0,1.0497932,-6.2254832,-6.9572753)">
      <path
         id="path47-3"
         style="fill:#286e58;stroke-width:0.123946"
         transform="rotate(-137.94504)"
         d="m -87.664795,-10.104801 a 99.157043,99.157043 0 0 1 -99.157045,99.157043 99.157043,99.157043 0 0 1 -99.15704,-99.157043 99.157043,99.157043 0 0 1 99.15704,-99.157039 99.157043,99.157043 0 0 1 99.157045,99.157039 z" />
      <path
         id="path1639"
         style="fill:#46b390;fill-opacity:1;stroke-width:0.0934387;stroke-miterlimit:4;stroke-dasharray:none"
         d="m 57.81939,35.35097 a 74.75114,74.75114 0 0 0 74.12767,65.4881 74.75114,74.75114 0 0 0 74.12789,-65.4881 h -74.26922 z" />
      <path
         id="circle882-8"
         style="fill:#86898f;fill-opacity:1;stroke-width:0.189267;stroke-miterlimit:4;stroke-dasharray:none"
         d="m 94.763164,144.93148 v 79.57907 a 99.157044,99.157044 0 0 0 37.183866,7.29059 99.157044,99.157044 0 0 0 37.18388,-7.29059 v -79.57907 h -37.37136 z" />
      <path
         id="circle4522"
         style="fill:#46b390;fill-opacity:1;stroke-width:0.123946;stroke-miterlimit:4;stroke-dasharray:none"
         d="m 33.617011,144.93148 a 99.157044,99.157044 0 0 0 98.330019,86.86966 99.157044,99.157044 0 0 0 98.3303,-86.86966 h -98.51778 z" />
      <path
         id="path957-6"
         style="fill:#286e58;stroke-width:0.123946"
         d="m 206.31486,132.64417 a 74.367775,74.367775 0 0 1 -74.36778,74.36777 74.367775,74.367775 0 0 1 -74.367772,-74.36777 74.367775,74.367775 0 0 1 74.367772,-74.36778 74.367775,74.367775 0 0 1 74.36778,74.36778 z" />
      <path
         id="path15-9"
         style="fill:#1d2024;stroke-width:0.131226"
         d="M 180.6423,132.64418 A 48.695221,48.695221 0 0 1 131.94708,181.3394 48.695221,48.695221 0 0 1 83.251862,132.64418 48.695221,48.695221 0 0 1 131.94708,83.948959 48.695221,48.695221 0 0 1 180.6423,132.64418 Z" />
      <path
         id="path45-8"
         style="fill:none;stroke:#1d2024;stroke-width:29.1042"
         d="M 243.41187,132.64417 A 111.46478,111.46478 0 0 1 131.94708,244.10895 111.46478,111.46478 0 0 1 20.4823,132.64417 111.46478,111.46478 0 0 1 131.94708,21.179382 111.46478,111.46478 0 0 1 243.41187,132.64417 Z" />
      <path
         style="fill:none;stroke:#1d2024;stroke-width:29.1042;stroke-linecap:butt;stroke-linejoin:miter;stroke-dasharray:none;stroke-opacity:1"
         d="m 132.29167,171.97917 v 74.46132"
         id="path1816" />
    </g>
  </g>
</svg>
